<svg xmlns="http://www.w3.org/2000/svg" width="1008.501" height="324.04" viewBox="0 0 1008.501 324.04"><path fill-rule="evenodd" clip-rule="evenodd" fill="#00ACDD" d="M173.32 103.036c.138.948.101 2.495.612 3.856.909 2.617 1.861 2.915 4.566 2.187 2.99-.829 5.988-1.513 9.065-2.288 1.343 2.212 1.296 4.33.199 6.278-3.223 5.764-14.16 11.81-21.365 4.721-3.682-3.606-5.123-8.356-4.399-13.548.952-6.839 1.007-6.854-6.028-5.974-1.339.156-2.683.608-4.044.779-1.492.17-3.023.286-4.522.209-2.295-.112-4.359-.883-4.975-3.407-.63-2.614.214-5.054 2.281-6.622 1.825-1.387 3.968-2.47 6.116-3.234 6.404-2.229 13.055-2.549 19.731-2.251 10.699.471 21.351 1.318 31.22 6.086a47.38 47.38 0 0 1 3.671 1.904c1.828 1.032 3.526 2.216 2.697 4.725-.647 1.916-3.964 3.78-5.97 3.454-4.113-.641-8.219-1.361-12.335-1.984a44.306 44.306 0 0 0-5.55-.452c-.887-.015-1.904.098-2.661.532-2.654 1.485-5.185 3.106-8.309 5.029"/><path fill="#ED7D20" d="M228.91 243.477c-3.635 5.688-6.56 10.88-10.08 15.695-4.605 6.336-9.587 11.079-14.58 17.144-6.977 8.476-20.854 15.025-31.553 19.099-11.26 4.258-23.074 6.785-35.083 6.238-15.13-.669-28.766-5.423-40.46-15.203-12.222-10.185-22.052-22.129-31.647-34.315-7.574-9.653-13.074-20.463-18.157-31.448-1.864-4.033-1.625-7.173-2.339-11.767-.409-2.516-3.012-5.463-3.953-7.958-.598-1.611-.959-3.331-1.213-5.043-.449-2.977-.38-6.05-1.13-8.976-1.626-6.524-4.24-12.904-5.369-19.5-1.944-11.499-.496-23.074 1.47-34.46 1.777-10.217 2.378-19.913 4.366-30.09 2.465-12.697 6.647-24.874 11.589-36.904C55.116 55.439 62.498 46.8 69.782 38.19c9.985-11.745 24.276-16.893 39.305-20.13 6.43-1.39 13.167-2.202 19.771-2.176 10.645.065 21.246 1.85 31.188 5.344 8.439 2.969 17.118 3.411 24.783 7.861 6.238 3.627 12.465 6.22 18.349 10.478 2.009 1.484 7.418 2.43 9.895 2.773 6.908.956 6.448 2.165 3.455-3.784-1.202-2.339-2.795-4.971-5.026-6.329-13.439-8.28-26.582-17.208-42.853-20.322-1.086-.217-2.147-.709-3.106-1.267-2.042-1.22-3.874-2.773-5.996-3.812-1.984-.978-5.097-2.734-6.212-2.017-3.215 2.017-3.718-2.075-5.887-1.644-.688.138-1.799-.369-2.198-.043-1.916 1.615-3.341.637-5.043-.388-1.231-.728-2.773-1.028-4.149-1.582-4.971-1.933-10.069-.891-15.17-.688-8.548.304-17.161.717-25.333 2.969-16.028 4.431-30.478 12.016-43.45 21.904-9.674 7.393-17.206 16.524-24.142 26.231-10.398 14.602-16.98 30.641-21.607 47.53C2.174 114.424.635 130 .092 145.745c-.489 13.27 1.075 26.358 2.846 39.504 3.179 23.317 11.05 45.076 22.729 65.786 7.68 13.661 17.104 26.155 27.828 37.785 6.763 7.299 14.685 13.346 23.001 19.109 17.716 12.217 37.553 17.09 59.062 15.952 19.583-1.035 36.886-8.323 52.161-19.645 3.964-2.94 9.482-2.816 12.733-6.496 2.006-2.295 6.684-8.736 8.248-11.333 1.785-2.929 3.581-5.862 5.134-8.899 2.242-4.265 4.157-7.313 6.413-11.571 2.277-4.294 5.105-8.353 7.11-12.734 1.299-2.825 2.614-5.913 1.553-9.726"/><path fill="#009D9A" d="M139.902 199.394c-2.027-7.075-8.331-26.014-11.072-32.886-7.249-18.316-6.524-20.977-10.196-39.971-2.071-10.848-3.91-21.774-4.891-32.737-.583-6.532.681-13.223 1.188-19.833.022-.355.685-.681 1.35-1.3.645.785 1.195 1.444 1.897 2.288.793-1.213 1.445-2.354 2.154-3.458 4.291-6.807 10.742-11.003 19.743-12.223 7.451-1 14.866-1.89 22.461-1.231 4.254.362 7.842 1.858 11.984 4.273-1.625 1.397-2.784 3.113-4.41 3.569-3.715 1.028-7.635 1.564-11.495 2.031-6.115.724-12.292 1.278-18.447 1.872-2.705.246-4.287 1.629-5.641 3.559-4.464 6.394-4.548 13.294-3.07 20.235 1.868 8.769 4.186 17.451 6.329 26.162 2.932 11.89 5.441 23.859 8.928 35.619 5.018 16.778 11.611 28.603 19.979 44.438l-9.059 4.703h-11.13l-6.602-5.11z"/><path fill="#183F88" d="M146.506 173.061c-.492-.76-1.209-1.434-2.042-2.382M144.464 170.679c-6.224 4.714-2.368 9.381-1.289 13.917-3.273-.015-6.079 2.592-9.139.123M125.811 158.079c-1.144 4.743.101 8.911 3.371 12.788.543-4.801-.076-9.073-3.371-12.788M142.509 167.626c.699-1.589 1.528-2.958 1.81-4.424.109-.641-.919-1.452-1.401-2.187-.8.496-2.154.902-2.271 1.517-.339 1.811-.684 3.831 1.862 5.094M134.117 167.775c.456-.185.887-.38 1.354-.579-1.354-3.262-2.701-6.524-4.062-9.783-.423.127-.869.253-1.292.376 2.363 3.042.364 7.321 4 9.986M137.614 160.317c4.243-3.292 1.48-5.33.329-8.103-2.563 2.889-.564 5.069-.329 8.103M137.021 149.702c.398-.261.879-.493.825-.587-.177-.37-.467-.695-.731-1.028-.232.166-.681.369-.652.485.094.376.362.72.558 1.13"/><path fill-rule="evenodd" clip-rule="evenodd" fill="#183F88" d="M134.037 184.719c3.06 2.469 5.866-.138 9.139-.123-1.079-4.536-4.935-9.207 1.289-13.917m-.001 0c.832.949 1.549 1.622 2.042 2.382m-2.353 3.45c.213 6.633.318 6.98 3.555 9.512.981-3.617-2.657-6.239-3.555-9.512M125.811 158.079c3.295 3.715 3.914 7.987 3.371 12.788-3.27-3.877-4.515-8.045-3.371-12.788M142.509 167.626c-2.545-1.263-2.201-3.284-1.861-5.094.116-.615 1.47-1.021 2.271-1.517.481.735 1.51 1.546 1.401 2.187-.283 1.466-1.112 2.835-1.811 4.424M134.117 167.775c-3.635-2.665-1.637-6.944-4.001-9.985.424-.123.869-.25 1.292-.376 1.362 3.259 2.708 6.521 4.062 9.783-.467.198-.897.393-1.353.578M137.614 160.317c-.235-3.034-2.234-5.214.329-8.103 1.152 2.773 3.914 4.811-.329 8.103"/><g fill="#FFD75F"><path fill-rule="evenodd" clip-rule="evenodd" d="M97.886 307.319c.825.087 1.622.152 2.415.302l-.055.915c-.775.059-1.582.043-2.379.043.019-.419.019-.854.019-1.26"/><path d="M60.753 41.066c-.677-.524-1.184-1.1-1.373-1.035-.586.286-1.1.793-1.636 1.191.304.344.728 1.014.945.941.634-.144 1.185-.586 2.064-1.097"/><path fill-rule="evenodd" clip-rule="evenodd" d="M52.549 274.86c1.502-.764 2.961-1.499 4.945-2.499 2.672 3.827 5.239 7.317 7.509 10.989.413.655-.464 1.987-.981 3.914-4.308-4.682-7.878-8.552-11.422-12.451.032-.014-.051.047-.051.047"/><path fill-rule="evenodd" clip-rule="evenodd" d="M50.865 267.825c.865.305 2.539.641 2.52.891-.08 2.034-.481 4.062-.814 6.133-.021.011.062-.051.029-.037-.54-2.372-1.061-4.75-1.597-7.14l-.138.153M60.753 41.066c-.88.511-1.43.953-2.064 1.097-.217.072-.641-.598-.945-.941.536-.398 1.05-.905 1.636-1.191.189-.065.696.511 1.373 1.035"/><path d="M56.807 267.825c-.858-1.593-2.173-3.103-2.426-4.79-1.024-6.423-5.514-10.605-9.779-15.518-.094.926-.304 1.35-.178 1.622 2.755 5.623 5.503 11.264 8.345 16.839.819 1.582 2.26 2.382 4.193 1.694.507 2.39 1.007 4.768 1.51 7.176 3.425 3.863 6.882 7.733 11.064 12.415.514-1.926 1.336-3.259.938-3.914-2.19-3.671-4.678-7.162-7.263-10.985a324.546 324.546 0 0 1-4.74 2.441c.322-2.027.707-4.056.778-6.09.02-.249-1.584-.585-2.442-.89"/><path d="M114.116 313.38l.145-.146c-1.194 1.543-2.487 1.927-4.323.786-3.422-2.14-6.777-4.5-10.467-6.079-4.449-1.897-7.751-4.975-11.021-8.211a523.078 523.078 0 0 0-13.139-12.521c-.659-.605-2.646-.992-2.9-.659-.685.869-1.025 2.206-.996 3.325.058.746.952 1.51 1.578 2.136 2.361 2.336 4.718 4.668 7.165 6.894 2.944 2.709 5.796 5.576 9.055 7.915 3.617 2.614 8.4 3.555 11.332 7.288.522.634 1.583.901 2.408 1.321 7.389 3.585 15.115 6.065 23.309 7.234 4.12.586 6.006-.301 8.32-3.643.796-1.166 2.321-2.176 3.744-2.6 4.881-1.484 9.819-2.697 14.768-3.99-.032-.376-.062-.724-.079-1.107-3.175-.825-5.562-3.562-9.555-2.621-5.362 1.313-10.829.481-16.064-.695-10.63-2.397-20.804-5.717-29.218-13.033-5.691-4.949-11.687-9.56-16.509-15.4-2.864-3.526-5.919-6.915-8.711-10.514a1946.452 1946.452 0 0 1-19.399-25.746c-.844-1.129-1.05-2.701-1.636-4.026-1.731-3.975-3.469-7.951-5.33-11.875-.699-1.51-1.795-2.737-3.588-1.912.84 3.899 1.597 7.527 2.401 11.148.137.489.594.876.84 1.34 2.929 5.126 6.304 10.101 8.573 15.47 1.836 4.33 4.432 7.86 7.687 11.09.8.79 1.647 1.488 2.371 2.317 7.513 8.49 14.808 17.154 22.527 25.458 5.626 6.042 12.089 11.256 19.359 15.456 2.676 1.563 4.917 3.724 7.353 5.6M27.205 163.923a16.93 16.93 0 0 0 1.126-.124c.601-5.901 1.05-11.828 1.792-17.704.593-4.641 3.823-9.594 4.743-14.2 1.756-8.613 1.285-16.879 3.074-25.5.116-.648.181-1.698-.213-1.98-3.193-2.455-1.365-5.54-.713-8.031 1.789-6.767 4.121-13.425 6.343-20.09.695-2.096.55-4.428 2.871-6.042 1.401-.967 1.995-6.061 1.604-7.987-1.025 1.926-1.716 3.562-2.687 5.025-3.548 5.188-5.431 10.938-7.15 16.893-1.532 5.229-2.06 10.917-5.761 15.572-1.347 1.709-2.342 4.406-2.013 6.419.586 3.795-.232 6.857-2.158 10.076-.985 1.618-1.195 3.733-1.492 5.685-.63 4.279-1.126 8.599-1.607 12.893-.333 2.99-.565 5.978-.804 8.979.232.054.471.101.695.167a97.355 97.355 0 0 0 1.897-2.781c-.068 7.973-.944 15.394.453 22.73M36.876 226.442a5215.399 5215.399 0 0 0-3.896-9.16 769.658 769.658 0 0 1-3.497-8.451c-.146 6.173 1.491 11.807 3.917 17.256.101.298 1.289.145 3.476.355M37.636 220.686c1.97-.268 3.092-.42 4.258-.572-1.256-4.037-2.394-7.665-3.737-12.002-3.37 4.703 2.26 8.272-.521 12.574M23.834 188.934c.529-.047 1.05-.076 1.579-.109l-.731-6.466c-.406.047-.793.08-1.177.112.101 2.154.217 4.298.329 6.463M36.318 195.708c-.655-.235-1.311-.456-1.962-.691-.521 1.268-1.01 2.513-1.535 3.787.666.207 1.821.673 1.875.583.637-1.188 1.094-2.43 1.622-3.679M28.447 171.982c.319-.84.695-1.441.695-2.042 0-.323-.673-.634-1.042-.963-.362.641-.814 1.267-1.007 1.959-.058.159.688.546 1.354 1.046M42.183 243.55c-.014.271-.014.539-.047.825.84.011 1.669.055 2.495.09.015-.242.029-.507.051-.768-.837-.05-1.659-.09-2.499-.147"/><path fill-rule="evenodd" clip-rule="evenodd" d="M114.116 313.38c-2.436-1.876-4.677-4.037-7.353-5.601-7.27-4.2-13.733-9.414-19.359-15.456-7.719-8.303-15.014-16.968-22.527-25.458-.724-.829-1.571-1.528-2.371-2.317-3.255-3.229-5.851-6.76-7.687-11.09-2.27-5.369-5.644-10.344-8.573-15.47-.246-.464-.703-.851-.84-1.34-.804-3.621-1.561-7.249-2.401-11.148 1.793-.825 2.89.402 3.588 1.912 1.861 3.924 3.599 7.9 5.33 11.875.586 1.325.792 2.897 1.636 4.026a1953.056 1953.056 0 0 0 19.399 25.746c2.792 3.599 5.847 6.988 8.711 10.514 4.822 5.84 10.818 10.451 16.509 15.4 8.414 7.316 18.588 10.636 29.218 13.033 5.235 1.177 10.702 2.009 16.064.695 3.994-.941 6.38 1.796 9.555 2.621.018.384.047.731.079 1.107-4.949 1.293-9.887 2.506-14.768 3.99-1.423.424-2.947 1.434-3.744 2.6-2.314 3.342-4.2 4.229-8.32 3.643-8.193-1.169-15.919-3.649-23.309-7.234-.826-.42-1.886-.688-2.408-1.321-2.932-3.733-7.715-4.674-11.332-7.288-3.259-2.339-6.111-5.206-9.055-7.915-2.447-2.226-4.804-4.558-7.165-6.894-.626-.626-1.521-1.39-1.578-2.136-.029-1.119.311-2.456.996-3.325.253-.333 2.241.054 2.9.659a523.078 523.078 0 0 1 13.139 12.521c3.27 3.236 6.572 6.313 11.021 8.211 3.69 1.579 7.045 3.939 10.467 6.079 1.835 1.141 3.128.757 4.323-.786.876 1.702 2.071 2.6 4.337 1.677-1.259-2.051-2.86-1.86-4.482-1.53m13.892 2.904c-.04-.249-.134-.521-.188-.753h-5.811v.753h5.999zM27.205 163.923c-1.397-7.335-.521-14.757-.452-22.73a101.027 101.027 0 0 1-1.897 2.781c-.225-.065-.463-.112-.695-.167.239-3.001.471-5.989.804-8.979.481-4.294.977-8.614 1.607-12.893.296-1.952.507-4.066 1.492-5.685 1.926-3.219 2.744-6.281 2.158-10.076-.33-2.013.666-4.71 2.013-6.419 3.701-4.656 4.229-10.344 5.761-15.572 1.72-5.956 3.602-11.705 7.15-16.893.97-1.463 1.662-3.099 2.687-5.025.391 1.926-.203 7.02-1.604 7.987-2.321 1.615-2.176 3.946-2.871 6.042-2.223 6.666-4.555 13.324-6.343 20.09-.652 2.491-2.48 5.576.713 8.031.395.282.33 1.332.213 1.98-1.789 8.62-1.318 16.886-3.074 25.5-.92 4.605-4.149 9.559-4.743 14.2-.743 5.876-1.191 11.803-1.792 17.704-.37.052-.736.095-1.127.124M56.944 267.673c-1.915.688-3.356-.112-4.175-1.694-2.842-5.576-5.59-11.217-8.345-16.839-.126-.271.083-.695.178-1.611 4.265 4.902 8.754 9.084 9.779 15.507.253 1.687 1.568 3.197 2.426 4.79l.137-.153zM36.876 226.442c-2.187-.21-3.375-.058-3.476-.354-2.426-5.449-4.062-11.083-3.917-17.256a769.658 769.658 0 0 0 3.497 8.451c1.159 2.715 2.31 5.424 3.896 9.159M37.636 220.686c2.78-4.302-2.85-7.871.521-12.574 1.343 4.337 2.48 7.965 3.737 12.002-1.166.152-2.288.304-4.258.572M23.834 188.934c-.112-2.165-.228-4.309-.329-6.463a36.26 36.26 0 0 0 1.177-.112c.243 2.143.489 4.312.731 6.466-.529.032-1.05.062-1.579.109M36.318 195.708c-.528 1.25-.985 2.491-1.622 3.679-.054.09-1.209-.376-1.875-.583.525-1.274 1.014-2.52 1.535-3.787.651.234 1.307.456 1.962.691M28.447 171.982c-.666-.5-1.412-.887-1.354-1.046.192-.692.645-1.318 1.007-1.959.369.329 1.042.641 1.042.963 0 .601-.376 1.202-.695 2.042M42.183 243.55c.84.058 1.662.098 2.499.148-.022.261-.036.525-.051.768-.826-.036-1.654-.079-2.495-.09.033-.287.033-.555.047-.826"/></g><path fill-rule="evenodd" clip-rule="evenodd" fill="#183F88" d="M137.021 149.702c-.196-.409-.464-.753-.558-1.13-.029-.116.42-.319.652-.485.265.333.554.658.731 1.028.054.094-.428.325-.825.587M144.153 176.511c.898 3.273 4.536 5.895 3.555 9.512-3.237-2.531-3.342-2.879-3.555-9.512"/><path fill="#009D9A" d="M149.015 221.707c-.337 2.426-1.234 4.421-4.594 4.222-3.983-.228-8.031.264-11.879-1.934-.605-.362-1.503-.829-2.053-.691-4.924 1.14-22.158-6.506-27.06-6.752-2.983-.152-5.956-.167-8.889-.25a266.431 266.431 0 0 0 3.733 5.282c.604.854 1.137 2.096 1.969 2.418 3.328 1.274 16.34 9.167 17.387 11.828 1.046 2.654 3.599 3.066 5.76 5.058 3.074 2.817 7.234 4.315 11.079 5.974 6.339 2.73 11.546 6.698 16.81 10.746a23.796 23.796 0 0 0 2.266 1.618c2.94 1.905 5.895 3.776 8.675 5.543a277.02 277.02 0 0 1 3.284-3.165c.793-.8 2.06-1.412 2.379-2.379 1.083-3.197.225-2.802 1.083-6.083.42-1.561.992-2.766 1.843-4.059 3.125-4.71 2.979-10.742 2.57-16.212l-8.797-18.168-15.566 7.004z"/><path fill="#183F88" d="M296.118 87.182c-.959 0-1.832.405-2.422 1.123-1.047 1.361-.826 3.353.5 4.417 4.511 3.591 11.687 7.893 20.282 7.961 5.409 0 10.54-1.575 14.468-4.442 4.196-3.012 6.604-7.317 6.604-11.825 0-2.303-.641-4.555-1.789-6.336-1.582-2.578-4.029-4.612-7.744-6.43-2.875-1.361-6.391-2.433-11.046-3.353-4.722-.84-8.494-2.187-10.812-3.776-1.18-.836-2.013-1.655-2.502-2.437-.514-.836-.734-1.698-.734-2.868 0-1.553.619-3.863 3.541-6.046 2.57-1.901 6.151-2.991 9.841-2.991 5.25 0 9.341 2.447 13.787 5.405 1.409.945 3.411.496 4.287-.905a2.904 2.904 0 0 0 .5-2.219 3.177 3.177 0 0 0-1.347-2.085c-4.157-2.711-9.775-6.351-17.227-6.351-5.04 0-9.841 1.452-13.538 4.106-3.849 2.856-6.086 6.904-6.086 11.086 0 2.205.594 4.316 1.716 6.119 1.542 2.455 3.96 4.468 7.168 5.981 2.73 1.296 6.01 2.295 10.29 3.113 5.134.924 9.261 2.347 11.759 4.001 1.292.872 2.18 1.77 2.817 2.824.623 1.01.891 1.966.891 3.161 0 1.759-.681 4.362-3.972 6.785-2.792 2.057-6.752 3.236-10.88 3.236-6.26 0-12.665-3.526-16.343-6.546a3.152 3.152 0 0 0-2.009-.708zM374.876 44.024c-7.313 0-14.337 3.056-19.232 8.386-5.077 5.391-7.842 12.479-7.842 19.989 0 7.563 2.766 14.638 7.82 19.942 5.003 5.358 12.027 8.429 19.254 8.429 6.952 0 13.968-3.146 18.769-8.415 5.156-5.405 7.955-12.483 7.955-19.956 0-7.415-2.828-14.511-7.948-19.975a25.202 25.202 0 0 0-18.776-8.4zm0 49.609c-5.322 0-10.311-2.223-14.048-6.256-3.729-3.78-5.858-9.25-5.858-14.978 0-5.71 2.129-11.213 5.858-15.108 3.686-3.958 8.682-6.137 14.048-6.137 5.141 0 10.033 2.179 13.729 6.151 3.736 4.004 5.879 9.511 5.879 15.094 0 5.612-2.143 11.075-5.879 14.993-3.758 4.025-8.646 6.241-13.729 6.241zM422.005 45.639c-1.872 0-3.385 1.528-3.385 3.411v48.301c0 1.916 1.484 3.418 3.385 3.418h26.796c1.817 0 3.396-1.597 3.396-3.418 0-1.85-1.578-3.479-3.396-3.479h-23.299V49.05c0-1.847-1.596-3.411-3.497-3.411zM470.01 45.639c-1.962 0-3.433 1.463-3.433 3.411v48.301c0 1.952 1.47 3.418 3.433 3.418 1.912 0 3.461-1.528 3.461-3.418V49.05c0-1.883-1.55-3.411-3.461-3.411zM496.193 45.639c-1.934 0-3.403 1.463-3.403 3.411v48.301c0 1.916 1.499 3.418 3.403 3.418h9.674c15.145 0 27.48-12.408 27.48-27.654 0-15.152-12.336-27.477-27.48-27.477h-9.674zm4.599 48.233h-1.101V52.54h6.176c11.34 0 20.565 9.233 20.565 20.576 0 11.561-9.052 20.677-20.565 20.756h-5.075zM554.713 87.269h23.222l4.319 11.333c.46 1.325 1.688 2.168 3.114 2.168.456 0 .891-.065 1.151-.174 1.813-.684 2.708-2.661 2.074-4.515l-19-48.189c-.533-1.325-1.793-2.187-3.147-2.187h-.318c-1.351 0-2.628.898-3.16 2.198l-19.013 48.222c-.622 1.807.291 3.791 2.065 4.464.387.123.738.181 1.173.181a3.535 3.535 0 0 0 3.265-2.194l4.255-11.307zm20.727-6.829h-18.284l9.121-23.541 9.163 23.541zM606.092 45.639c-2.035 0-3.498 1.463-3.498 3.411v48.301c0 1.916 1.492 3.418 3.411 3.418 1.927 0 3.483-1.528 3.483-3.418V78.492h10.753c.919.17 3.28.873 5.213 2.147 1.34.916 2.296 1.843 2.784 2.762.66 1.021 1.036 2.303 1.148 3.979 0 4.233.492 7.125 1.589 9.439.554.981 1.361 1.854 2.245 2.412.963.619 2.038.709 2.6.709.71 0 1.231-.116 1.553-.188 1.812-.623 2.752-2.524 2.14-4.327a3.263 3.263 0 0 0-2.144-2.089l-.611-.188-.13-.634c-.301-1.416-.432-3.132-.362-5.108 0-3.737-1.354-6.51-2.506-8.183-.695-1.057-1.571-1.959-2.632-2.755l-1.111-.83 1.061-.891c3.896-3.229 6.028-7.705 6.028-12.6 0-9.098-7.386-16.51-16.462-16.51h-14.552zm14.552 25.974h-11.155V52.54h11.155c5.285 0 9.58 4.309 9.58 9.609 0 5.217-4.295 9.464-9.58 9.464zM658.865 45.639c-1.934 0-3.39 1.463-3.39 3.411v48.301c0 1.952 1.456 3.418 3.39 3.418 1.937 0 3.504-1.528 3.504-3.418V49.05c0-1.883-1.567-3.411-3.504-3.411zM680.661 45.639c-1.94 0-3.399 1.463-3.399 3.411 0 1.926 1.524 3.49 3.399 3.49h14.032v44.812a3.424 3.424 0 0 0 3.414 3.418c1.945 0 3.414-1.466 3.414-3.418V52.54h14.104c1.864 0 3.428-1.597 3.428-3.49 0-1.916-1.506-3.411-3.428-3.411h-34.964zM738.383 100.77h25.63c1.811 0 3.39-1.597 3.39-3.418 0-1.85-1.579-3.479-3.39-3.479h-23.294V76.627h20.184c1.865 0 3.39-1.578 3.39-3.512 0-1.807-1.583-3.399-3.39-3.399h-20.184V52.54h23.294c1.811 0 3.39-1.629 3.39-3.49 0-1.847-1.55-3.411-3.39-3.411h-26.545c-2.177 0-3.636 1.463-3.636 3.411v48.301c0 1.763 1.264 3.165 2.94 3.389l1.611.03zm23.284-76.76c-.884 0-1.058.232-1.81 1.456l-.254.409-5.568 8.396c-.278.409-.475.934-.475 1.194 0 .341.608.612 1.365.612 1.97 0 3.29-.293 5.047-1.912l6.357-6.361c.721-.655 1.072-1.209 1.072-1.694-.202-.615-3.247-2.1-5.734-2.1zM782.731 87.182c-.949 0-1.844.409-2.43 1.123-.995 1.339-.785 3.377.481 4.42 4.52 3.588 11.702 7.889 20.297 7.958 5.438 0 10.594-1.575 14.508-4.442 4.174-3.016 6.578-7.324 6.578-11.825 0-2.292-.63-4.543-1.781-6.344-1.578-2.57-4.037-4.604-7.747-6.422-2.817-1.343-6.427-2.44-11.028-3.353-4.743-.84-8.52-2.191-10.812-3.776-1.13-.771-1.987-1.593-2.509-2.437-.519-.836-.757-1.698-.757-2.868 0-1.557.623-3.874 3.562-6.054 2.563-1.894 6.145-2.983 9.822-2.983 5.254 0 9.355 2.447 13.776 5.405 1.409.931 3.425.496 4.272-.895.492-.684.638-1.448.518-2.223a3.202 3.202 0 0 0-1.351-2.1c-4.218-2.737-9.786-6.343-17.216-6.343-5.024 0-9.822 1.452-13.508 4.106-3.885 2.85-6.119 6.894-6.119 11.086 0 2.176.605 4.294 1.724 6.123 1.535 2.444 3.939 4.454 7.154 5.978 2.672 1.271 6.05 2.295 10.275 3.113 5.148.924 9.269 2.339 11.814 3.997 1.281.876 2.183 1.804 2.783 2.839.623 1.021.898 1.977.898 3.15 0 1.763-.695 4.37-3.962 6.785-2.795 2.057-6.78 3.236-10.911 3.236-6.181 0-12.448-3.382-16.319-6.546a3.178 3.178 0 0 0-2.012-.708zM302.541 146.667l29.981 38.903c.146.206.217.271.283.344.753.876 1.716 1.339 2.636 1.339 1.86 0 3.399-1.561 3.399-3.396v-47.56c0-1.774-1.593-3.338-3.399-3.338-1.825 0-3.324 1.499-3.324 3.338v36.948l-30.206-39.16c-1.068-1.463-3.215-1.782-4.772-.746-.843.634-1.372 1.753-1.314 2.817l.011 47.701c0 1.905 1.503 3.396 3.422 3.396 1.774 0 3.284-1.561 3.284-3.396v-37.19zM381.118 130.498c-7.32 0-14.323 3.074-19.232 8.425-5.069 5.362-7.85 12.447-7.85 19.967 0 7.604 2.781 14.7 7.828 19.957 5.003 5.351 12.024 8.407 19.254 8.407 6.97 0 13.983-3.135 18.762-8.392 5.148-5.387 7.962-12.469 7.962-19.971 0-7.4-2.813-14.49-7.948-19.957-4.718-5.29-11.73-8.436-18.776-8.436zm0 49.63c-5.297 0-10.297-2.22-14.066-6.242-3.729-3.794-5.876-9.269-5.876-14.997 0-5.713 2.136-11.217 5.891-15.09 3.754-4.026 8.617-6.163 14.051-6.163 5.148 0 10.015 2.187 13.733 6.177 3.733 3.986 5.865 9.482 5.865 15.076 0 5.612-2.14 11.083-5.873 15-3.761 4.02-8.638 6.239-13.725 6.239z"/><g><path fill="#183F88" d="M425.991 132.142c-1.937 0-3.443 1.488-3.443 3.4v29.145c0 12.444 10.119 22.567 22.581 22.567 12.44 0 22.556-10.123 22.556-22.567v-29.145c0-1.912-1.484-3.4-3.403-3.4-1.94 0-3.49 1.488-3.49 3.4v29.145c0 8.657-7.02 15.699-15.663 15.699-8.638 0-15.677-7.042-15.677-15.699v-29.145c0-1.879-1.549-3.4-3.461-3.4z"/></g><g><path fill="#183F88" d="M506.823 187.188l.235.047c.08.018.315.018.402.018.21 0 .391 0 .55-.043l.315-.043c.091-.033.185-.065.293-.09l.08-.062.242-.029c.229-.159.358-.268.518-.34.072-.058.131-.112.214-.163.25-.337.409-.489.51-.601l.352-.59 20.25-47.871c.333-.811.312-1.76-.043-2.607-.352-.818-.985-1.448-1.796-1.756-1.807-.814-3.772.12-4.468 1.771l-17.017 40.312-16.952-40.312c-.717-1.669-2.715-2.52-4.345-1.795-.913.351-1.575.999-1.933 1.839a3.292 3.292 0 0 0 .007 2.523l20.021 47.683c.062.076.101.145.159.22h.181l.261.735.308.366c.083.047.142.101.21.152l.127.051c.163.094.34.217.499.333l.015.007h.76l.045.245z"/></g><g><path fill="#183F88" d="M550.784 187.253h25.641c1.803 0 3.4-1.585 3.4-3.396 0-1.883-1.555-3.472-3.4-3.472h-23.302v-17.267h20.181c1.868 0 3.418-1.568 3.418-3.498 0-1.821-1.604-3.411-3.418-3.411h-20.181v-17.176h23.302c1.846 0 3.4-1.597 3.4-3.494 0-1.843-1.555-3.4-3.4-3.4h-26.784c-1.912 0-3.411 1.488-3.411 3.4v48.316a3.406 3.406 0 0 0 2.969 3.368l1.585.03z"/></g><g><path fill="#183F88" d="M599.995 132.142a3.399 3.399 0 0 0-3.414 3.4v48.316c0 1.905 1.495 3.396 3.414 3.396h26.799c1.788 0 3.371-1.585 3.371-3.396 0-1.85-1.583-3.472-3.371-3.472h-23.316v-44.844c0-1.844-1.593-3.4-3.483-3.4z"/></g><g><path fill="#183F88" d="M646.1 132.142c-1.913 0-3.434 1.521-3.434 3.4v48.316c0 1.875 1.521 3.396 3.434 3.396h26.755c1.821 0 3.407-1.585 3.407-3.396 0-1.883-1.557-3.472-3.407-3.472h-23.272v-44.844c-.001-1.844-1.594-3.4-3.483-3.4z"/></g><g><path fill="#183F88" d="M693.318 187.253h25.647c1.796 0 3.382-1.585 3.382-3.396 0-1.883-1.549-3.472-3.382-3.472h-23.309v-17.267h20.174c1.875 0 3.399-1.568 3.399-3.498 0-1.821-1.583-3.411-3.399-3.411h-20.174v-17.176h23.309c1.833 0 3.382-1.597 3.382-3.494 0-1.843-1.549-3.4-3.382-3.4h-26.784c-1.967 0-3.418 1.456-3.418 3.4v48.316c0 1.72 1.201 3.099 2.85 3.356l1.705.042z"/></g><g><path fill="#183F88" d="M737.674 173.673c-.953 0-1.828.413-2.408 1.123-1.038 1.361-.825 3.367.493 4.446 4.532 3.574 11.719 7.86 20.274 7.925 5.46 0 10.594-1.578 14.49-4.432 4.185-3.022 6.589-7.328 6.589-11.817 0-2.273-.645-4.536-1.807-6.372-1.59-2.552-4.117-4.638-7.74-6.401-2.871-1.361-6.479-2.462-11.024-3.356-4.628-.792-8.498-2.168-10.786-3.762-1.188-.811-2.05-1.651-2.538-2.437-.528-.873-.728-1.702-.728-2.882 0-1.561.612-3.885 3.551-6.042 2.571-1.905 6.148-3.005 9.812-3.005 5.245 0 9.341 2.455 13.805 5.42 1.401.949 3.379.503 4.283-.909.952-1.372.551-3.338-.851-4.312l-.235-.148c-4.062-2.622-9.631-6.213-17.002-6.213-5.021 0-9.837 1.477-13.522 4.142-3.867 2.875-6.083 6.916-6.083 11.068 0 2.198.587 4.312 1.716 6.129 1.539 2.447 3.921 4.46 7.133 5.967 2.74 1.289 6.115 2.303 10.293 3.117 5.087.909 9.211 2.324 11.788 3.993 1.275.844 2.141 1.731 2.804 2.81.633 1.104.894 2.021.894 3.193 0 1.767-.685 4.374-3.982 6.778-2.763 2.057-6.73 3.244-10.872 3.244-6.177.007-12.462-3.389-16.321-6.553a3.208 3.208 0 0 0-2.026-.714z"/></g><g><path fill="#183F88" d="M287.291 303.909c.08.029.16.059.243.072.413.123.836.243 1.22.478.568.294 1.018.732 1.387 1.079.137.138.318.315.424.392 4.761-.104 7.216-7.169 7.896-11.354.731-4.468 1.488-9.573 2.249-14.761 2.759-18.592 4.703-31.003 6.506-33.954 1.836-3.06 6.923-3.06 11.01-3.06 3.292 0 4.5.941 5.29 1.958h1.583c.963 0 3.24-2.4 3.24-3.718 0-1.224-1.007-5.54-4.225-5.54-.279.029-1.658.413-2.552.667-1.905.536-2.651.731-3.1.731-.568 0-.909-.076-1.162-.127a1.14 1.14 0 0 0-.308-.047c-.247.011-1.094.286-1.68.47-1.176.374-1.94.602-2.476.602-1.101 0-2.846-.63-2.846-2.332 0-3.621 3.107-11.04 6.155-17.821 2.215-4.757 5.843-8.095 11.079-10.221l.616-.25.5.42c.717.602 1.162 1.303 1.484 1.829 2.462-.771 3.678-3.812 3.678-5.481 0-2.169-1.919-5.453-4.797-5.453-9.96 0-15.721 9.859-18.776 18.135-2.06 5.503-2.675 8.791-3.353 12.274-.445 2.382-.916 4.844-1.865 8.03-.5 1.839-7.538 2.35-7.603 2.35-.413 0-1.173-.09-1.948-.177-.601-.076-1.209-.16-1.521-.16-1.596 0-5.268.319-5.268 3.251 0 2.306 1.644 3.472 4.873 3.472.358 0 1.579-.152 2.553-.282 1.358-.174 2.202-.279 2.614-.279.717 0 1.6.203 2.755.633l.709.268v1.98c0 3.805-4.992 23.997-9.33 41.159l-.876 3.513-.376.234c-1.857 1.199-2.878 1.851-4.044 2.86-.938 1.155-1.742 3.1-1.742 4.5.072.529 1.245 2.683 1.69 3.494l.094.166z"/></g><g><path fill="#183F88" d="M352.845 233.948c-5.47 0-10.564 5.279-19.815 14.87a817.694 817.694 0 0 1-5.352 5.51c-1.289 1.274-8.204 13.349-8.204 15.604 0 4.073 5.055 4.96 7.006 4.96 4.515 0 11.756-6.438 20.423-18.125l1.231-1.687.673 1.984c.88 2.589 1.394 3.953 4.272 9.232.938 1.745 5.446 4.743 6.481 4.75h2.85c1.857-.21 13.566-5.362 13.566-8.411 0-.564-.507-2.328-1.268-2.328-.138 0-.366.047-.586.177-.558.282-1.05.605-1.575.949-1.781 1.177-4.008 2.632-7.65 2.632-5.224 0-8.472-3.736-8.472-9.761 0-.872.593-3.229 1.567-6.995.656-2.531 1.543-5.989 1.543-6.684.001-3.531-3.732-6.677-6.69-6.677zm-23.356 32.234l.275-2.172c.963-5.641 11.712-18.906 16.357-18.906h1.108v1.499c0 2.14-1.912 5.163-6.817 10.782-4.79 5.493-6.622 6.481-8.95 7.726l-1.973 1.071z"/></g><g><path fill="#183F88" d="M392.812 232.21c-4.323 0-11.571 7.795-12.867 12.69-.333 1.253-1.101 2.404-1.785 3.422-.423.633-.876 1.289-.985 1.702-1.423 4.681-2.925 11.216-2.925 15.503 0 3.907 1.995 8.476 7.578 8.476 4.656 0 13.273-2.509 19.642-6.698 3.986-2.657 4.804-4.235 4.804-5.803a4.818 4.818 0 0 0-.094-.76c-8.487 4.696-15.445 7.005-21.079 7.005-2.817 0-4.519-1.97-4.519-5.257 0-11.39 7.234-16.807 12.52-20.76 2.549-1.904 4.75-3.555 4.75-5.025 0-3.072-3.009-4.495-5.04-4.495z"/></g><g><path fill="#183F88" d="M419.64 241.968c-1.31 4.428-4.569 4.92-6.955 5.279-2.621.394-4.037.608-4.037 4.359 0 1.383.565 2.223 1.188 3.125.528.786 1.094 1.607 1.094 2.69 0 1.325-.355 2.35-.696 3.342-.354 1.054-.695 2.049-.695 3.516 0 3.428 1.991 10.941 7.896 10.948 2.02-.199 15.355-8.222 15.355-11.672-.08-.626-1.358-2.465-1.952-2.607-.902.003-2.538 1.228-4.109 2.411-2.237 1.684-4.786 3.592-7.31 3.592-1.694 0-3.056-1.745-3.056-3.896 0-1.636 1.814-5.923 3.393-6.169 4.565-.804 18.059-11.814 18.059-17.806 0-3.874-3.599-5.626-6.937-5.626-1.205.179-7.327 5.074-11.238 8.514z"/></g><g><path fill="#183F88" d="M498.71 233.948c-5.471 0-10.565 5.274-19.809 14.858a815.257 815.257 0 0 1-5.358 5.521c-1.054 1.039-8.183 13.215-8.183 15.604 0 4.073 5.04 4.96 6.991 4.96 4.493 0 11.73-6.438 20.398-18.125l1.234-1.68.684 1.97c.898 2.607 1.344 3.91 4.25 9.24.963 1.749 5.471 4.75 6.5 4.75h2.863c1.854-.217 13.553-5.373 13.553-8.411 0-.564-.519-2.328-1.269-2.328-.158 0-.376.054-.567.163-.584.304-1.097.641-1.647.996-1.774 1.159-3.994 2.6-7.597 2.6-5.228 0-8.472-3.736-8.472-9.761 0-.872.594-3.229 1.564-6.995.659-2.531 1.557-5.989 1.557-6.684.002-3.532-3.741-6.678-6.692-6.678zm-23.378 32.234l.268-2.172c.973-5.641 11.741-18.906 16.397-18.906h1.082v1.499c0 2.122-1.897 5.148-6.813 10.782-4.819 5.493-6.64 6.481-8.954 7.726l-1.98 1.071z"/></g><g><path fill="#183F88" d="M545.803 256.547h.674l.137.931c.115.746.319 1.466.493 2.111.228.821.412 1.538.412 2.154 0 3.447 1.582 16.923 6.039 16.923 1.224 0 5.793-.721 5.793-4.232 0-1.376-.533-1.941-1.424-2.882-.539-.557-1.132-1.195-1.701-2.088-.514-.967-.735-1.764-.735-2.643 0-.591.095-1.155.182-1.72.058-.351.101-.713.127-1.079-.087-.148-.174-.304-.268-.452l-.442-.586.062-.344c0-3.313 0-6.745-.13-9.424-.095-.612-.095-1.329-.095-2.096v-1.162c0-4.855-.579-7.169-3.917-7.169-1.459 0-3.929.844-4.25 1.459-2.977 4.707-8.502 9.576-17.387 15.391l-.833.543-1.188-1.477V257.5c0-.713.568-2.237 2.249-6.409 1.321-3.287 3.298-8.254 3.298-9.398 0-1.973-2.002-3.649-3.643-3.649-.641 0-3.008.608-3.62 1.499-.463.956-6.336 17.893-6.336 25.091 0 3.468 2.744 6.177 6.238 6.177 4.261 0 15.044-10.467 18.439-14.443l.781-.931 1.045 1.11z"/></g><g><path fill="#183F88" d="M619.05 217.015c-15.877.065-28.859 12.802-28.925 28.378.065 15.641 13.03 28.371 28.925 28.371 6.756 0 13.077-2.125 18.259-6.155 1.498-1.176 1.767-3.439.593-5.04-1.1-1.322-3.595-1.694-5.003-.659-3.889 3.121-8.566 4.721-13.849 4.721-5.717 0-11.213-2.205-15.471-6.212-4.033-3.932-6.325-9.406-6.325-15.025 0-5.601 2.162-10.797 6.282-15.018 4.337-4.041 9.833-6.242 15.514-6.242 5.282 0 10.083 1.647 13.893 4.765 1.347 1.035 3.822.728 4.996-.739 1.122-1.542.851-3.773-.667-5.029-5.126-3.995-11.43-6.116-18.222-6.116zM663.568 249.607h27.939v20.746c0 1.944 1.463 3.411 3.414 3.411 1.963 0 3.494-1.496 3.494-3.411v-48.302c0-1.916-1.531-3.421-3.494-3.421-1.951 0-3.414 1.47-3.414 3.421v20.75h-27.939v-20.75c0-1.916-1.531-3.421-3.501-3.421-1.941 0-3.389 1.47-3.389 3.421v48.302c0 1.915 1.49 3.411 3.389 3.411 1.97 0 3.501-1.496 3.501-3.411v-20.746zM743.771 217.015c-7.295 0-14.319 3.06-19.236 8.393-5.039 5.373-7.806 12.461-7.806 19.985 0 7.581 2.767 14.664 7.806 19.949 5.019 5.354 12.028 8.421 19.236 8.421 6.955 0 13.986-3.135 18.766-8.407 5.17-5.438 7.998-12.524 7.998-19.964 0-7.386-2.828-14.479-7.977-19.979-4.725-5.263-11.727-8.398-18.787-8.398zm0 49.615c-5.318 0-10.308-2.219-14.065-6.264-3.711-3.801-5.854-9.268-5.854-14.974 0-5.677 2.137-11.177 5.854-15.091 3.714-3.975 8.71-6.169 14.065-6.169 5.134 0 10.025 2.19 13.755 6.173 3.714 4.001 5.851 9.497 5.851 15.087 0 5.619-2.137 11.086-5.854 14.993-3.766 4.026-8.651 6.245-13.752 6.245zm-.398-63.808l4.98 4.308c1.995 1.658 3.32 1.956 5.341 1.956.475 0 1.268-.152 1.268-.543 0-.134-.149-.478-.775-1.332l-5.369-6.756c-.912-1.166-1.9-1.933-3.899-1.933h-2.939c-1.915 0-2.839.688-3.892 1.955l-5.406 6.767c-.59.822-.724 1.166-.738 1.304 0 .524 1.006.54 1.114.54 2.01 0 3.393-.304 5.345-1.962l4.97-4.304zM829.049 232.503v37.85c0 1.915 1.481 3.411 3.379 3.411 1.864 0 3.512-1.593 3.512-3.411v-48.302c0-1.814-1.601-3.349-3.563-3.421-1.155 0-2.144.51-2.816 1.438l-17.176 23.837-17.19-23.837c-.673-1-1.832-1.438-2.708-1.438h-.268c-1.837 0-3.383 1.564-3.383 3.421v48.302c0 1.854 1.546 3.411 3.383 3.411 1.933 0 3.512-1.532 3.512-3.411v-37.878l13.679 19.156c.654.902 1.723 1.427 2.882 1.427 1.299 0 2.266-.503 2.965-1.444l13.792-19.111zM862.786 260.244h23.247l4.265 11.357c.478 1.303 1.738 2.162 3.157 2.162.474 0 .901-.058 1.137-.152 1.825-.695 2.733-2.687 2.086-4.551l-19.012-48.157c-.536-1.325-1.742-2.187-3.104-2.187l-.25.007a3.566 3.566 0 0 0-3.275 2.194l-19.001 48.193c-.594 1.81.297 3.805 2.082 4.493.329.101.706.159 1.162.159 1.419 0 2.679-.858 3.251-2.194l4.255-11.324zm20.727-6.792H865.23l9.131-23.552 9.152 23.552zM936.695 217.015c-16.05 0-29.112 12.766-29.112 28.461 0 15.597 13.062 28.288 29.112 28.288 6.51 0 12.712-2.129 17.911-6.155.562-.383.909-.804 1.144-1.303v-.116l.152-.362c.051-.203.094-.373.142-.543.068-.253.112-.423.112-.644v-18.118c0-1.94-1.615-3.468-3.657-3.468h-16.307c-1.984 0-3.57 1.528-3.57 3.468 0 1.912 1.658 3.584 3.57 3.584h12.831v12.94l-.554.311c-3.722 2.144-7.799 3.273-11.774 3.273-6.039 0-11.553-2.241-15.529-6.311-4.148-4.015-6.448-9.287-6.448-14.844 0-5.684 2.3-11.024 6.479-15.047 3.946-4.051 9.46-6.296 15.499-6.296 4.848 0 9.675 1.651 13.595 4.652 1.525 1.231 3.939.909 5.105-.539a3.67 3.67 0 0 0 .709-2.723 3.565 3.565 0 0 0-1.393-2.354c-5.015-3.971-11.406-6.154-18.017-6.154zM979.49 273.763h25.63c1.804 0 3.381-1.593 3.381-3.411 0-1.864-1.577-3.494-3.381-3.494h-23.291v-17.251h20.178c1.854 0 3.403-1.593 3.403-3.483 0-1.81-1.586-3.399-3.403-3.399h-20.178V225.53h23.291c1.832 0 3.381-1.59 3.381-3.479 0-1.857-1.549-3.421-3.381-3.421h-26.543c-2.183 0-3.619 1.47-3.619 3.421v48.302c0 1.767 1.256 3.179 2.958 3.389l1.574.021z"/></g><path fill="none" d="M-107.86-107.394h1227.679M-108.048 432.442v-539.836M1115.909 432.442v-539.836M-107.86 432.442h1227.679"/></svg>